<svg width="178" height="178" viewBox="0 0 178 178" fill="none" xmlns="http://www.w3.org/2000/svg">
<g id="Group 48096771">
<g id="Group 36828">
<g id="Ellipse 59" filter="url(#filter0_i_1074_4578)">
<circle cx="88.7032" cy="89.3128" r="62.0119" transform="rotate(1.81942 88.7032 89.3128)" fill="black"/>
</g>
<g id="Group 36826" filter="url(#filter1_i_1074_4578)">
<circle id="Ellipse 56" cx="88.7031" cy="89.3172" r="60.6962" transform="rotate(-12.1653 88.7031 89.3172)" stroke="white" stroke-width="2.63167"/>
<g id="Group 36827">
<path id="Vector 92" d="M105.45 66.7918L101.463 67.6513L103.942 72.0217L107.23 71.313L115.212 83.2086L124.244 79.9437L125.763 75.4436L118.429 77.7567L113.345 69.1163L117.962 68.121L114.418 63.9069L110.291 64.7967L108.368 61.9902L102.981 63.1514L105.45 66.7918Z" fill="white"/>
<path id="Vector 91" fill-rule="evenodd" clip-rule="evenodd" d="M77.2402 65.9844L93.462 88.9033L98.2264 85.522L92.7205 78.6378L101.009 70.6707L93.9261 62.3873L77.2402 65.9844ZM90.2146 67.0136L84.4962 68.2463L90.405 74.7225L94.098 71.3757L90.2146 67.0136Z" fill="white"/>
<path id="Vector 90" d="M59.7207 70.1445L73.1138 67.2905L75.4957 71.1081L69.1083 73.813L74.4021 81.6263L79.4602 77.9355L82.1726 81.5494L77.5147 85.5563L82.2396 91.4219L86.5508 88.3831L90.3491 90.769L81.6454 98.2903L59.7207 70.1445Z" fill="white"/>
<path id="Vector 89" fill-rule="evenodd" clip-rule="evenodd" d="M37.7695 74.5469L62.0475 109.091L73.5795 101.808L75.1592 92.3656L60.5929 73.7916L52.7723 71.2787L37.7695 74.5469ZM52.0115 77.3253L48.6637 78.0546L64 99.5676L66.8922 97.939L52.0115 77.3253Z" fill="white"/>
<path id="Vector 93" d="M127.465 75.4601L119.006 59.7031L124.295 60.7514L126.568 65.6163L129.321 62.4169L134.389 63.9304L144.858 76.2923L138.353 75.4697L134.142 68.7427L130.715 66.2649L128.444 69.971L133.055 77.1196L127.465 75.4601Z" fill="white"/>
<path id="Vector 94" d="M60.8586 111.291L35.3278 75.3139C27.1143 94.0837 38.9254 117.042 44.2739 124.151C50.8203 118.47 56.0685 115.2 60.8586 111.291Z" fill="white"/>
<path id="Vector 103" d="M36.6808 70.7679C43.3495 48.7959 57.3688 39.771 63.7632 39.6314C68.8841 39.5196 71.9172 40.3908 86.4056 50.1198C104.516 62.281 81.776 62.9361 68.1243 63.2937C57.203 63.5797 44.2963 68.2644 36.6808 70.7679Z" fill="white"/>
<path id="Vector 104" d="M90.1793 50.3476C86.0375 45.8119 72.8722 38.954 67.5903 37.7018C70.3142 35.0858 97.687 28.4706 105.287 36.6134C112.886 44.7562 104.057 55.7045 101.236 58.8757C97.1686 63.4475 95.3857 56.0491 90.1793 50.3476Z" fill="white"/>
<path id="Vector 106" d="M107.755 86.4833C103.89 82.3799 64.2793 110.565 44.957 125.17C57.1863 140.417 75.325 146.683 82.5569 145.124C96.88 131.092 111.62 90.5866 107.755 86.4833Z" fill="white"/>
<path id="Vector 107" d="M120.122 84.6742C128.103 83.3136 129.081 108.403 126.675 124.754C126.361 126.886 125.534 128.925 124.209 130.625C111.858 146.471 96.989 144.44 87.8945 145.955C100.295 139.765 109.464 86.4912 120.122 84.6742Z" fill="white"/>
<path id="Vector 108" d="M129.173 127.604C138.681 119.463 144.45 102.932 144.742 94.0596C144.755 93.6604 144.738 93.2718 144.688 92.8755C144.392 90.5186 142.928 81.7867 137.309 79.3721C121.701 72.6653 128.794 90.8919 130.303 97.8898C132.983 110.322 129.685 118.552 129.173 127.604Z" fill="white"/>
</g>
</g>
</g>
<g id="Vector 109" filter="url(#filter2_i_1074_4578)">
<path d="M107.288 59.6221C105.445 59.9737 106.794 55.0241 108.955 49.2895C111.548 42.4091 119.602 39.3745 124.991 44.3769C131.714 50.6177 136.041 58.3285 137.59 61.737C124.235 56.8846 111.28 58.8607 107.288 59.6221Z" fill="white"/>
</g>
</g>
<defs>
<filter id="filter0_i_1074_4578" x="26.6914" y="26.599" width="124.023" height="124.725" filterUnits="userSpaceOnUse" color-interpolation-filters="sRGB">
<feFlood flood-opacity="0" result="BackgroundImageFix"/>
<feBlend mode="normal" in="SourceGraphic" in2="BackgroundImageFix" result="shape"/>
<feColorMatrix in="SourceAlpha" type="matrix" values="0 0 0 0 0 0 0 0 0 0 0 0 0 0 0 0 0 0 127 0" result="hardAlpha"/>
<feOffset dy="-0.70178"/>
<feGaussianBlur stdDeviation="1.05267"/>
<feComposite in2="hardAlpha" operator="arithmetic" k2="-1" k3="1"/>
<feColorMatrix type="matrix" values="0 0 0 0 0 0 0 0 0 0 0 0 0 0 0 0 0 0 0.25 0"/>
<feBlend mode="normal" in2="shape" result="effect1_innerShadow_1074_4578"/>
</filter>
<filter id="filter1_i_1074_4578" x="26.5246" y="27.293" width="124.204" height="125.275" filterUnits="userSpaceOnUse" color-interpolation-filters="sRGB">
<feFlood flood-opacity="0" result="BackgroundImageFix"/>
<feBlend mode="normal" in="SourceGraphic" in2="BackgroundImageFix" result="shape"/>
<feColorMatrix in="SourceAlpha" type="matrix" values="0 0 0 0 0 0 0 0 0 0 0 0 0 0 0 0 0 0 127 0" result="hardAlpha"/>
<feOffset dx="-0.153085" dy="1.22468"/>
<feGaussianBlur stdDeviation="1.53085"/>
<feComposite in2="hardAlpha" operator="arithmetic" k2="-1" k3="1"/>
<feColorMatrix type="matrix" values="0 0 0 0 0 0 0 0 0 0 0 0 0 0 0 0 0 0 0.25 0"/>
<feBlend mode="normal" in2="shape" result="effect1_innerShadow_1074_4578"/>
</filter>
<filter id="filter2_i_1074_4578" x="106.267" y="41.8984" width="31.323" height="21.0645" filterUnits="userSpaceOnUse" color-interpolation-filters="sRGB">
<feFlood flood-opacity="0" result="BackgroundImageFix"/>
<feBlend mode="normal" in="SourceGraphic" in2="BackgroundImageFix" result="shape"/>
<feColorMatrix in="SourceAlpha" type="matrix" values="0 0 0 0 0 0 0 0 0 0 0 0 0 0 0 0 0 0 127 0" result="hardAlpha"/>
<feOffset dx="-0.153085" dy="1.22468"/>
<feGaussianBlur stdDeviation="1.53085"/>
<feComposite in2="hardAlpha" operator="arithmetic" k2="-1" k3="1"/>
<feColorMatrix type="matrix" values="0 0 0 0 0 0 0 0 0 0 0 0 0 0 0 0 0 0 0.25 0"/>
<feBlend mode="normal" in2="shape" result="effect1_innerShadow_1074_4578"/>
</filter>
</defs>
</svg>
