<svg width="173" height="239" viewBox="0 0 173 239" fill="none" xmlns="http://www.w3.org/2000/svg">
<g id="Group 48096922">
<path id="Vector 84" d="M110.465 191.573L118.077 173.547L97.3231 164.892L86.2698 181.928L70.9576 158.301L63.8594 181.015" stroke="#464646" stroke-width="2.35462"/>
<circle id="Ellipse 38" cx="60.0459" cy="123.579" r="3.24312" fill="#464646"/>
<circle id="Ellipse 39" cx="90.7724" cy="121.923" r="3.24312" fill="#464646"/>
<circle id="Ellipse 40" cx="119.628" cy="123.579" r="3.24312" fill="#464646"/>
<path id="Vector 83" d="M78.5529 146.557L61.2207 124.322L62.4315 146.557L71.076 159.398L78.5529 146.557ZM78.5529 146.557L91.5027 121.714L107.624 136.778M78.5529 146.557L97.0527 165.321L107.624 136.778M107.624 136.778L119.36 123.436L126.71 139.428M107.624 136.778C111.063 148.666 118.018 172.571 118.328 173.087M126.71 139.428C124.045 150.862 118.637 173.603 118.328 173.087M126.71 139.428L141.719 123.436M118.328 173.087L124.465 163.679L141.719 123.436M140.789 106.676L141.719 123.436" stroke="#464646" stroke-width="2.35462"/>
<path id="Vector 85" d="M141.717 124.398L170.76 96.957" stroke="#464646" stroke-width="2.35462"/>
<path id="Vector 86" d="M60.6014 123.271L32.4214 101.57L62.4157 146.479L49.313 148.836M49.313 148.836L51.716 131.527L28.2363 108.853L49.313 148.836Z" stroke="#464646" stroke-width="2.35462"/>
<path id="Vector 77" d="M33.6981 114.307H20.9707V101.823H33.6981C56.6465 102.656 107.519 104.359 127.42 104.512C147.322 104.666 165.925 96.1254 172.738 91.8359V98.174C140.032 121.836 66.4173 118.789 33.6981 114.307Z" fill="#626262"/>
<path id="Vector 76" d="M20.9707 108.074V88.6896H37.4916C105.981 68.7531 156.194 81.8578 172.739 90.9023V98.0651C120.527 83.2087 60.8191 98.5474 37.4916 108.074H20.9707Z" fill="#C2C2C2"/>
<path id="Vector 82" d="M42.3125 109.311L60.0747 121.923L67.0945 110.323L90.3941 121.26L102.343 108.334L119.519 121.923L139.234 107.406" stroke="#464646" stroke-width="2.35462"/>
<circle id="Ellipse 41" cx="42.1452" cy="109.919" r="2.52413" fill="#464646"/>
<circle id="Ellipse 55" cx="66.8093" cy="108.641" r="2.52413" fill="#464646"/>
<circle id="Ellipse 56" cx="102.12" cy="107.395" r="2.52413" fill="#464646"/>
<circle id="Ellipse 57" cx="138.126" cy="107.149" r="2.52413" fill="#464646"/>
<g id="front">
<g id="Group 48096748">
<circle id="Ellipse 34" cx="55.167" cy="156.833" r="3.24312" fill="#C2C2C2"/>
<circle id="Ellipse 39_2" cx="131.481" cy="171.696" r="3.24312" fill="#C2C2C2"/>
<circle id="Ellipse 40_2" cx="119.528" cy="169.852" r="3.24312" fill="#C2C2C2"/>
<circle id="Ellipse 41_2" cx="100.45" cy="166.052" r="3.24312" fill="#C2C2C2"/>
<circle id="Ellipse 42" cx="81.0088" cy="165.212" r="3.24312" fill="#C2C2C2"/>
<circle id="Ellipse 43" cx="71.6513" cy="167.259" r="3.24312" fill="#C2C2C2"/>
<path id="Vector 80" d="M106.015 180.542L101.249 166.348L87.4975 177.667M106.015 180.542L96.2704 190.922L87.4791 177.682M106.015 180.542L118.964 169.46L122.233 182.663M106.015 180.542L112.676 196.998L122.233 182.663M87.4791 177.682L87.4975 177.667M87.4791 177.682L81.1238 190.922M87.4975 177.667L81.1238 164.654L72.9683 177.667M72.9683 177.667L81.1238 190.922M72.9683 177.667L56.0859 157.758L63.417 180.542L81.1238 190.922M122.233 182.663L131.287 171.849L130.029 188.447L123.491 200.519L122.233 182.663Z" stroke="#C2C2C2" stroke-width="2.35462"/>
<circle id="Ellipse 50" cx="122.153" cy="183.583" r="3.24312" fill="#C2C2C2"/>
<circle id="Ellipse 51" cx="106.56" cy="181.145" r="3.24312" fill="#C2C2C2"/>
<circle id="Ellipse 52" cx="87.497" cy="178.185" r="3.24312" fill="#C2C2C2"/>
<circle id="Ellipse 53" cx="72.5927" cy="177.095" r="3.24312" fill="#C2C2C2"/>
</g>
<g id="Group 48096747">
<circle id="Ellipse 45" cx="81.0127" cy="191.7" r="3.24312" fill="#C2C2C2"/>
<circle id="Ellipse 46" cx="96.9287" cy="192.661" r="3.24312" fill="#C2C2C2"/>
<circle id="Ellipse 47" cx="113.044" cy="198.188" r="3.24312" fill="#C2C2C2"/>
<circle id="Ellipse 48" cx="123.403" cy="201.431" r="3.24312" fill="#C2C2C2"/>
<path id="Vector 81" d="M63.5993 180.902C64.7884 195.669 67.5807 224.973 69.2376 224.053C70.8944 223.132 77.599 202.497 80.7442 192.294C86.6893 207.176 99.201 236.549 101.686 234.984C104.793 233.028 115.034 199.313 113.423 198.393C111.812 197.472 108.245 241.543 116.99 237.17C123.987 233.672 124.431 211.625 123.779 201.039C120.865 213.834 113.449 238.743 107.095 236.02C100.74 233.296 96.8525 205.734 95.703 192.294C96.355 207.636 95.0816 237.861 84.7715 236.02C71.884 233.718 68.8922 187.346 71.6539 186.195C74.4155 185.045 58.5366 232.452 63.5993 231.762C68.6621 231.072 96.2781 204.376 91.9056 194.595C88.4075 186.771 85.3084 184.891 84.196 184.93M84.196 184.93C79.5166 201.768 71.1014 234.938 74.8756 232.913C79.5933 230.381 111.812 200.924 110.662 192.294C109.511 183.664 118.406 243.385 121.905 237.17C125.405 230.955 108.468 194.082 105.024 192.294C101.579 190.506 82.3533 238.321 80.7442 237.17C79.135 236.02 77.8523 186.211 84.196 184.93Z" stroke="#C2C2C2" stroke-width="2.35462"/>
</g>
<g id="Group 48096749">
<circle id="Ellipse 29" cx="74.8935" cy="128.532" r="3.24312" fill="#C2C2C2"/>
<circle id="Ellipse 30" cx="51.3564" cy="135.017" r="3.24312" fill="#C2C2C2"/>
<circle id="Ellipse 31" cx="100.452" cy="139.157" r="3.24312" fill="#C2C2C2"/>
<circle id="Ellipse 32" cx="142.339" cy="135.017" r="3.24312" fill="#C2C2C2"/>
<circle id="Ellipse 33" cx="127.284" cy="137.185" r="3.24312" fill="#C2C2C2"/>
<path id="Vector 79" d="M70.8345 149.428L75.0949 128.128L87.6811 147.491M70.8345 149.428L80.9038 164.144L87.6811 147.491M70.8345 149.428L52.6587 136.067L56.1032 157.753M70.8345 149.428V166.61L56.1032 157.753M87.6811 147.491L100.461 139.165L113.048 151.558M87.6811 147.491L100.461 164.144L113.048 151.558M113.048 151.558L126.602 137.616L131.443 153.494M113.048 151.558L119.244 168.985L131.443 153.494M131.443 153.494L141.706 136.067L144.611 149.428M131.443 153.494V171.696L144.611 149.428M144.611 149.428C150.075 140.186 163.857 110.597 170.064 96.957M56.1032 157.753C48.4128 149.097 33.2701 127.67 34.2226 111.206" stroke="#C2C2C2" stroke-width="2.35462"/>
<circle id="Ellipse 35" cx="70.0537" cy="148.61" r="3.24312" fill="#C2C2C2"/>
<circle id="Ellipse 36" cx="87.4951" cy="147.501" r="3.24312" fill="#C2C2C2"/>
<circle id="Ellipse 37" cx="113.042" cy="150.743" r="3.24312" fill="#C2C2C2"/>
<circle id="Ellipse 38_2" cx="131.481" cy="153.587" r="3.24312" fill="#C2C2C2"/>
<path id="Vector 78" d="M26.8105 102.327C33.1708 113.408 46.875 135.271 50.8102 134.078C54.7454 132.885 53.2448 108.24 52.0026 96.0662C59.3068 106.55 74.0941 127.489 74.8097 127.37C75.704 127.221 82.2629 93.8301 78.5363 90.9978C85.0952 107.345 98.7496 139.444 100.896 137.059C103.579 134.078 126.088 85.9297 122.213 85.9297C122.908 103.718 125.015 138.61 127.877 135.867C131.455 132.438 150.535 91.147 148.448 89.0601C145.417 104.066 139.951 134.078 142.336 134.078C144.721 134.078 158.435 106.153 164.994 92.1905" stroke="#C2C2C2" stroke-width="2.35462"/>
</g>
</g>
<g id="Group 48096746">
<path id="Vector 75" d="M20.9699 0.546875H0.0133794L0 183.582L20.9699 150.322V0.546875Z" fill="#C7C7C7"/>
<path id="Vector 78_2" d="M20.9688 108.074V88.6896H37.4897C105.98 68.7531 156.192 81.8578 172.737 90.9023V98.0651C120.525 83.2087 60.8172 98.5474 37.4897 108.074H20.9688Z" fill="white"/>
</g>
</g>
</svg>
