<svg viewBox="0 0 62 13" fill="none" xmlns="http://www.w3.org/2000/svg">
<g id="DEPth">
<path d="M0 12.0485V0.46875H8.92999C12.1647 0.46875 14.109 2.65393 14.109 6.26722C14.109 9.88051 12.1647 12.0485 8.92999 12.0485H0ZM8.51704 2.25819H1.97871V10.259H8.51704C10.771 10.259 12.1819 8.7277 12.1819 6.26722C12.1819 3.80674 10.771 2.25819 8.51704 2.25819Z" fill="white"/>
<path d="M15.9963 12.0485V0.46875H29.4171V2.25819H17.975V4.03042H29.2451V5.81986H17.975V10.259H29.4171V12.0485H15.9963Z" fill="white"/>
<path d="M31.3038 12.2205V0.46875H42.8491C44.4492 0.46875 45.4128 1.46671 45.4128 3.1357C45.4128 4.8047 44.4492 5.81986 42.8491 5.81986H33.2825V12.2205H31.3038ZM42.3329 2.25819H33.2825V4.03042H42.3329C43.09 4.03042 43.4857 3.75512 43.4857 3.1357C43.4857 2.51628 43.0728 2.25819 42.3329 2.25819Z" fill="white"/>
<path d="M46.8947 7.30834V6.00417H47.9857V3.40838H49.4278V6.00417H52.0361V7.30834H49.4278V9.55301C49.4278 10.1549 49.6912 10.5437 50.4686 10.5437H52.1616V11.8478H50.3307C48.5876 11.8478 47.9857 10.9575 47.9857 9.60317V7.30834H46.8947Z" fill="white"/>
<path d="M56.2688 7.30834C55.4913 7.30834 54.9772 7.69708 54.9772 8.299V11.8478H53.5351V3.40838H54.9772V6.45561C55.2782 6.17973 55.692 6.00417 56.181 6.00417H59.4665C61.2096 6.00417 61.8115 6.89451 61.8115 8.24884V11.8478H60.3694V8.299C60.3694 7.69708 60.1061 7.30834 59.3286 7.30834H56.2688Z" fill="white"/>
</g>
</svg>
