<svg width="17" height="17" viewBox="0 0 17 17" fill="none" xmlns="http://www.w3.org/2000/svg">
<path d="M14.5999 2.37252C13.1999 0.965852 11.3199 1.13919 8.49986 1.13919C5.85986 1.13919 3.8332 0.932519 2.39986 2.37252C0.993196 3.77252 1.16653 5.65252 1.16653 8.47252C1.16653 11.1059 0.959863 13.1392 2.39986 14.5725C3.79986 15.9792 5.67986 15.8059 8.49986 15.8059C11.1399 15.8059 13.1665 16.0125 14.5999 14.5725C15.9999 13.1725 15.8332 11.2925 15.8332 8.47252C15.8332 5.59919 15.9932 3.75919 14.5999 2.37252ZM13.6665 13.6392C12.7532 14.5525 11.5465 14.4859 8.49986 14.4859C5.63986 14.4859 4.2732 14.5859 3.3332 13.6392C2.3732 12.6792 2.48653 11.2992 2.48653 8.47252C2.48653 5.65252 2.38653 4.25252 3.3332 3.30585C4.2732 2.36585 5.56653 2.45919 8.49986 2.45919C11.3199 2.45919 12.7199 2.35919 13.6665 3.30585C14.5865 4.22585 14.5132 5.45252 14.5132 8.47252C14.5132 11.2992 14.6132 12.6992 13.6665 13.6392Z" fill="white"/>
<path d="M8.49909 4.70635C7.50002 4.70644 6.5419 5.10341 5.83552 5.80992C5.12913 6.51643 4.73233 7.47462 4.73242 8.47369C4.73251 9.47276 5.12947 10.4309 5.83599 11.1373C6.5425 11.8436 7.50069 12.2404 8.49976 12.2404C9.49883 12.2403 10.4569 11.8433 11.1633 11.1368C11.8697 10.4303 12.2665 9.47209 12.2664 8.47302C12.2663 7.47395 11.8694 6.51583 11.1629 5.80945C10.4563 5.10306 9.49816 4.70627 8.49909 4.70635ZM8.49909 10.9197C7.15242 10.9197 6.05242 9.82635 6.05242 8.47302C6.05242 7.11969 7.14576 6.02635 8.49909 6.02635C9.85242 6.02635 10.9458 7.11969 10.9458 8.47302C10.9458 9.81969 9.84576 10.9197 8.49909 10.9197ZM12.4124 3.67969C11.9258 3.67969 11.5324 4.07302 11.5324 4.55969C11.5324 5.04635 11.9258 5.43969 12.4124 5.43969C12.8991 5.43969 13.2924 5.04635 13.2924 4.55969C13.2924 4.07302 12.8991 3.67969 12.4124 3.67969Z" fill="white"/>
</svg>
