<svg width="53" height="54" viewBox="0 0 53 54" fill="none" xmlns="http://www.w3.org/2000/svg">
<g id="Group 36845">
<g id="Group 36828">
<g id="Ellipse 59" filter="url(#filter0_i_917_1167)">
<circle cx="26.2895" cy="26.8274" r="20.5901" transform="rotate(-5.53759 26.2895 26.8274)" fill="black"/>
</g>
<g id="Group 36826" filter="url(#filter1_i_917_1167)">
<circle id="Ellipse 56" cx="26.2871" cy="26.8265" r="20.1532" transform="rotate(-19.5223 26.2871 26.8265)" stroke="white" stroke-width="0.873806"/>
<g id="Group 36827">
<path id="Vector 92" d="M30.8442 18.6989L29.5678 19.1514L30.57 20.4852L31.6225 20.112L34.7566 23.6899L37.5922 22.2308L37.9011 20.6843L35.5842 21.7578L33.5428 19.1287L35.0208 18.6046L33.6747 17.3676L32.3534 17.8361L31.6009 16.9937L29.8765 17.6051L30.8442 18.6989Z" fill="white"/>
<path id="Vector 91" fill-rule="evenodd" clip-rule="evenodd" d="M21.5215 19.6328L27.8378 26.4903L29.2629 25.1743L27.1571 23.1414L29.5479 20.1654L26.8632 17.7389L21.5215 19.6328ZM25.8377 19.4201L24.0071 20.0692L26.2282 21.9505L27.302 20.6914L25.8377 19.4201Z" fill="white"/>
<path id="Vector 90" d="M15.9277 21.7461L20.2168 20.2368L21.1634 21.3927L19.175 22.555L21.2505 24.9028L22.7592 23.4724L23.8061 24.5471L22.4426 26.0647L24.2479 27.7953L25.5384 26.6113L26.8906 27.2355L24.3442 30.0823L15.9277 21.7461Z" fill="white"/>
<path id="Vector 89" fill-rule="evenodd" clip-rule="evenodd" d="M8.88672 24.1289L18.3502 34.4721L21.838 31.5835L21.9568 28.4069L16.3704 22.9098L13.6882 22.4148L8.88672 24.1289ZM13.6947 24.4383L12.6233 24.8208L18.5883 31.253L19.4714 30.5937L13.6947 24.4383Z" fill="white"/>
<path id="Vector 93" d="M38.4635 20.6181L35.0078 15.7891L36.794 15.9094L37.7495 17.4147L38.52 16.2441L40.2531 16.5271L44.2263 20.1527L42.0491 20.1584L40.3765 18.1222L39.1427 17.452L38.5523 18.769L40.3747 20.927L38.4635 20.6181Z" fill="white"/>
<path id="Vector 94" d="M18.052 35.2477L8.11509 24.486C6.20844 31.0162 11.074 38.0743 13.1375 40.1878C15.0517 38.0388 16.6409 36.7386 18.052 35.2477Z" fill="white"/>
<path id="Vector 103" d="M8.36819 22.9311C9.63001 15.4121 13.8628 11.8441 15.9626 11.5263C17.6441 11.2718 18.68 11.4297 23.8647 14.0174C30.3455 17.2521 22.8851 18.4347 18.4048 19.1329C14.8205 19.6914 10.7695 21.7829 8.36819 22.9311Z" fill="white"/>
<path id="Vector 104" d="M25.1161 13.9311C23.5594 12.6136 18.9325 10.915 17.1399 10.7272C17.9257 9.74998 26.6583 6.40777 29.507 8.76608C32.3558 11.1244 29.9138 15.1051 29.1196 16.2693C27.9747 17.9477 27.073 15.5872 25.1161 13.9311Z" fill="white"/>
<path id="Vector 106" d="M32.441 25.0857C30.9937 23.8987 19.1482 34.8642 13.4063 40.4952C18.0817 44.9963 24.3212 46.2882 26.6364 45.4673C30.7564 40.2376 33.8883 26.2726 32.441 25.0857Z" fill="white"/>
<path id="Vector 107" d="M36.4359 23.9632C39.0061 23.1758 40.3949 31.3961 40.2978 36.8829C40.2851 37.5984 40.0994 38.3051 39.7354 38.9211C36.3418 44.6642 31.3592 44.6275 28.4288 45.5131C32.2492 42.9477 33.0034 25.0147 36.4359 23.9632Z" fill="white"/>
<path id="Vector 108" d="M41.2437 37.7164C44.0283 34.6315 45.2252 28.9423 44.9441 26.0084C44.9315 25.8764 44.9094 25.7491 44.8762 25.6207C44.6783 24.8572 43.825 22.044 41.872 21.4878C36.4473 19.9429 39.558 25.6433 40.3523 27.8836C41.7635 31.8635 41.0272 34.7141 41.2437 37.7164Z" fill="white"/>
</g>
</g>
</g>
<g id="Vector 109" filter="url(#filter2_i_917_1167)">
<path d="M31.1477 16.2592C30.5557 16.4533 30.7894 14.7661 31.2573 12.7858C31.8186 10.4098 34.3419 9.0681 36.3291 10.4863C38.8084 12.2555 40.5612 14.6107 41.2161 15.6673C36.6122 14.6372 32.43 15.8387 31.1477 16.2592Z" fill="white"/>
</g>
</g>
<defs>
<filter id="filter0_i_917_1167" x="5.69727" y="6.00136" width="41.1836" height="41.4166" filterUnits="userSpaceOnUse" color-interpolation-filters="sRGB">
<feFlood flood-opacity="0" result="BackgroundImageFix"/>
<feBlend mode="normal" in="SourceGraphic" in2="BackgroundImageFix" result="shape"/>
<feColorMatrix in="SourceAlpha" type="matrix" values="0 0 0 0 0 0 0 0 0 0 0 0 0 0 0 0 0 0 127 0" result="hardAlpha"/>
<feOffset dy="-0.233015"/>
<feGaussianBlur stdDeviation="0.349522"/>
<feComposite in2="hardAlpha" operator="arithmetic" k2="-1" k3="1"/>
<feColorMatrix type="matrix" values="0 0 0 0 0 0 0 0 0 0 0 0 0 0 0 0 0 0 0.25 0"/>
<feBlend mode="normal" in2="shape" result="effect1_innerShadow_917_1167"/>
</filter>
<filter id="filter1_i_917_1167" x="5.64058" y="6.23047" width="41.2422" height="41.598" filterUnits="userSpaceOnUse" color-interpolation-filters="sRGB">
<feFlood flood-opacity="0" result="BackgroundImageFix"/>
<feBlend mode="normal" in="SourceGraphic" in2="BackgroundImageFix" result="shape"/>
<feColorMatrix in="SourceAlpha" type="matrix" values="0 0 0 0 0 0 0 0 0 0 0 0 0 0 0 0 0 0 127 0" result="hardAlpha"/>
<feOffset dx="-0.0508295" dy="0.406636"/>
<feGaussianBlur stdDeviation="0.508295"/>
<feComposite in2="hardAlpha" operator="arithmetic" k2="-1" k3="1"/>
<feColorMatrix type="matrix" values="0 0 0 0 0 0 0 0 0 0 0 0 0 0 0 0 0 0 0.25 0"/>
<feBlend mode="normal" in2="shape" result="effect1_innerShadow_917_1167"/>
</filter>
<filter id="filter2_i_917_1167" x="30.7441" y="9.90625" width="10.4727" height="6.77382" filterUnits="userSpaceOnUse" color-interpolation-filters="sRGB">
<feFlood flood-opacity="0" result="BackgroundImageFix"/>
<feBlend mode="normal" in="SourceGraphic" in2="BackgroundImageFix" result="shape"/>
<feColorMatrix in="SourceAlpha" type="matrix" values="0 0 0 0 0 0 0 0 0 0 0 0 0 0 0 0 0 0 127 0" result="hardAlpha"/>
<feOffset dx="-0.0508295" dy="0.406636"/>
<feGaussianBlur stdDeviation="0.508295"/>
<feComposite in2="hardAlpha" operator="arithmetic" k2="-1" k3="1"/>
<feColorMatrix type="matrix" values="0 0 0 0 0 0 0 0 0 0 0 0 0 0 0 0 0 0 0.25 0"/>
<feBlend mode="normal" in2="shape" result="effect1_innerShadow_917_1167"/>
</filter>
</defs>
</svg>
